Coordinates
version=1
nRows=8
nColumns=42
inDegrees=yes

Units are S.I. units (second, meters, Newtons, ...)
If the header above contains a line with 'inDegrees', this indicates whether rotational values are in degrees (yes) or radians (no).

endheader
time	pelvis_tilt	pelvis_list	pelvis_rotation	pelvis_tx	pelvis_ty	pelvis_tz	hip_flexion_r	hip_adduction_r	hip_rotation_r	knee_angle_r	knee_adduction_r	knee_angle_r_beta	ankle_angle_r	subtalar_angle_r	mtp_angle_r	hip_flexion_l	hip_adduction_l	hip_rotation_l	knee_angle_l	knee_adduction_l	knee_angle_l_beta	ankle_angle_l	subtalar_angle_l	mtp_angle_l	lumbar_extension	lumbar_bending	lumbar_rotation	arm_flex_r	arm_add_r	arm_rot_r	elbow_flex_r	pro_sup_r	wrist_flex_r	wrist_dev_r	arm_flex_l	arm_add_l	arm_rot_l	elbow_flex_l	pro_sup_l	wrist_flex_l	wrist_dev_l
      0.66000000	     11.79876422	     -4.19531377	     -9.87485020	     -0.43504011	      0.83633677	     -0.17597821	    -24.55838595	      5.98309786	    -15.05398710	     20.76054842	     -4.95709304	      0.36233992	     27.99076417	      3.41592717	     -7.68224557	     12.84846323	     -4.28285225	    -24.50295436	     14.04555368	      1.74901116	      0.24514116	      9.61046537	     -4.54442430	     -7.68224557	    -25.47458567	     -0.65056796	     13.83594903	     23.08752449	    -10.06180121	     10.35584634	     50.53742172	     90.00000001	      0.00000000	      0.00000000	    -10.92413167	     -0.18811163	    -24.15816134	     20.09303027	     90.00000001	      0.00000000	      0.00000000
      0.67000000	     11.63864742	     -3.88529301	    -10.02590497	     -0.42334677	      0.83575091	     -0.17590701	    -24.59879672	      5.34795551	    -14.87580621	     21.95157681	     -5.06992357	      0.38312729	     26.87818237	      2.90869747	     -7.66580187	     12.80055271	     -3.60710767	    -23.53790540	     14.88135055	      1.37914728	      0.25972856	      8.59456975	     -6.57925571	     -7.66580187	    -25.18935117	     -1.06120883	     13.83328282	     22.54333871	     -9.82461037	      9.82207754	     49.74863834	     90.00000001	      0.00000000	      0.00000000	    -10.63913589	     -0.20829253	    -25.01628165	     19.75593513	     90.00000001	      0.00000000	      0.00000000
      0.68000000	     11.69510876	     -3.67709040	    -10.12151009	     -0.41146643	      0.83571444	     -0.17569877	    -24.95677712	      4.93099425	    -14.35965631	     22.89667129	     -5.29372707	      0.39962230	     26.10358377	      2.89757572	     -7.66471952	     12.49233615	     -3.12127659	    -22.92314922	     15.82912668	      1.12145396	      0.27627038	      8.32285470	     -6.64203871	     -7.66471952	    -25.17356053	     -1.43066550	     13.87837001	     21.86440568	     -9.81632548	      9.77155324	     49.20801853	     90.00000001	      0.00000000	      0.00000000	    -10.41765590	     -0.32775771	    -25.03768146	     19.79771256	     90.00000001	      0.00000000	      0.00000000
      0.69000000	     11.60661094	     -3.33817894	    -10.21128095	     -0.39957467	      0.83575225	     -0.17572864	    -24.80125877	      4.28036800	    -14.13870937	     24.54110812	     -5.46405597	      0.42832314	     24.28564341	      2.25059185	     -7.66217877	     12.41857645	     -2.51214474	    -22.55698581	     16.86625582	      0.73660073	      0.29437170	      7.83410445	     -7.21582538	     -7.66217877	    -24.98428099	     -1.88216646	     13.84693956	     21.16208428	     -9.66562222	      9.42075779	     48.34594226	     90.00000001	      0.00000000	      0.00000000	    -10.11474170	     -0.47121522	    -25.07345170	     19.71386089	     90.00000001	      0.00000000	      0.00000000
      0.70000000	     11.50932907	     -3.01956664	    -10.24029781	     -0.38788406	      0.83609908	     -0.17570093	    -24.49329242	      3.79294857	    -13.67943449	     26.32014987	     -5.77242203	      0.45937327	     22.49894349	      1.22665738	     -7.65910066	     12.32697544	     -1.92826921	    -21.68342700	     17.85705654	      0.45526901	      0.31166443	      7.54999687	     -7.90233857	     -7.65910066	    -24.84898340	     -2.32499322	     13.82307652	     20.37909362	     -9.50953785	      8.97570539	     47.49058453	     90.00000001	      0.00000000	      0.00000000	     -9.63607135	     -0.65969751	    -25.09246599	     19.63376534	     90.00000001	      0.00000000	      0.00000000
      0.71000000	     11.50475598	     -2.73818195	    -10.18314284	     -0.37616777	      0.83689112	     -0.17579585	    -24.16006688	      3.33003486	    -12.97430102	     28.34939377	     -5.89451794	      0.49479026	     20.42051180	      0.02426275	     -7.65631346	     12.08827685	     -1.38196547	    -20.63763392	     18.80188622	      0.28671197	      0.32815482	      7.49616820	     -8.75413402	     -7.65631346	    -24.83731041	     -2.70954202	     13.73342101	     19.56091133	     -9.38170419	      8.55946663	     46.59602828	     90.00000001	      0.00000000	      0.00000000	     -9.06333563	     -0.86604206	    -25.05737490	     19.57478195	     90.00000001	      0.00000000	      0.00000000
      0.72000000	     11.37685568	     -2.60260904	     -9.93087591	     -0.36491753	      0.83799620	     -0.17598505	    -23.65221218	      3.27279263	    -11.23594361	     30.42574203	     -5.71782182	      0.53102938	     17.75167242	     -3.83273455	     -7.64617723	     11.84160333	     -0.90953718	    -18.02654531	     19.47594976	      0.42851862	      0.33991945	      6.86481173	    -11.60112575	     -7.64617723	    -24.81179470	     -2.87394258	     13.56092080	     18.73101028	     -9.13841137	      7.77369551	     45.59024714	     90.00000001	      0.00000000	      0.00000000	     -8.29145805	     -1.12404363	    -24.98325902	     19.44048667	     90.00000001	      0.00000000	      0.00000000
      0.73000000	     11.54550586	     -2.29603797	     -9.92339425	     -0.35319030	      0.83948000	     -0.17621385	    -23.10333264	      2.64083835	    -10.39945247	     33.05294114	     -5.65137369	      0.57688265	     15.00844511	     -5.22116117	     -7.64261218	     11.25100849	     -0.31037207	    -16.94937088	     20.20436629	      0.40252492	      0.35263271	      7.19517645	    -12.47895501	     -7.64261218	    -24.99413616	     -3.29603582	     13.47182601	     17.87306555	     -9.06053597	      7.56184671	     44.53107377	     90.00000001	      0.00000000	      0.00000000	     -7.59190250	     -1.34533679	    -24.80546616	     19.47043456	     90.00000001	      0.00000000	      0.00000000
